<svg version="1.1" xmlns="http://www.w3.org/2000/svg" width="22" height="22" viewBox="0 0 24 22">
<path fill="rgba(52,52,52,0.5)" d="M11.786 8.25c1.952 0 3.536 1.584 3.536 3.536s-1.584 3.536-3.536 3.536-3.536-1.584-3.536-3.536 1.584-3.536 3.536-3.536zM20.429 3.143c1.731 0 3.143 1.412 3.143 3.143v11c0 1.731-1.412 3.143-3.143 3.143h-17.286c-1.731 0-3.143-1.412-3.143-3.143v-11c0-1.731 1.412-3.143 3.143-3.143h2.75l0.626-1.67c0.307-0.81 1.265-1.473 2.124-1.473h6.286c0.859 0 1.817 0.663 2.124 1.473l0.626 1.67h2.75zM11.786 17.286c3.032 0 5.5-2.468 5.5-5.5s-2.468-5.5-5.5-5.5-5.5 2.468-5.5 5.5 2.468 5.5 5.5 5.5z" />
</svg>
