<svg width="20" height="6" viewBox="0 0 20 6" fill="none" xmlns="http://www.w3.org/2000/svg">
<path d="M5.1999 3.00001C5.1999 4.32549 4.12539 5.40001 2.7999 5.40001C1.47442 5.40001 0.399902 4.32549 0.399902 3.00001C0.399902 1.67452 1.47442 0.600006 2.7999 0.600006C4.12539 0.600006 5.1999 1.67452 5.1999 3.00001Z" fill="black"/>
<path d="M12.3999 3.00001C12.3999 4.32549 11.3254 5.40001 9.9999 5.40001C8.67442 5.40001 7.5999 4.32549 7.5999 3.00001C7.5999 1.67452 8.67442 0.600006 9.9999 0.600006C11.3254 0.600006 12.3999 1.67452 12.3999 3.00001Z" fill="black"/>
<path d="M19.5999 3.00001C19.5999 4.32549 18.5254 5.40001 17.1999 5.40001C15.8744 5.40001 14.7999 4.32549 14.7999 3.00001C14.7999 1.67452 15.8744 0.600006 17.1999 0.600006C18.5254 0.600006 19.5999 1.67452 19.5999 3.00001Z" fill="black"/>
</svg>
