<svg width="26" height="26" viewBox="0 0 26 26" fill="none" xmlns="http://www.w3.org/2000/svg">
<g clip-path="url(#clip0_528_16)">
<path d="M25.48 13.2889C25.48 12.3688 25.3977 11.4819 25.2431 10.6311H13V15.6592H19.9969C19.695 17.2842 18.7792 18.6608 17.4027 19.5838V22.8453H21.6031C24.0616 20.5819 25.48 17.2496 25.48 13.2903V13.2889Z" fill="#4285F4"/>
<path d="M13.0043 26C16.5143 26 19.4567 24.8358 21.6074 22.8511L17.4055 19.5867C16.2413 20.3667 14.7535 20.8289 13.0043 20.8289C9.61855 20.8289 6.75277 18.5409 5.7301 15.4686H1.38666V18.837C3.52444 23.0866 7.92277 26 13.0043 26Z" fill="#34A853"/>
<path d="M5.72578 15.4729C5.46578 14.6929 5.31844 13.8594 5.31844 13.0029C5.31844 12.1463 5.46578 11.3129 5.72578 10.5329V7.16444H1.38233C0.501222 8.91944 0 10.9056 0 13.0029C0 15.1002 0.502667 17.0863 1.38233 18.8413L5.72578 15.4729Z" fill="#FBBC05"/>
<path d="M13.0043 5.17111C14.9124 5.17111 16.627 5.82689 17.9732 7.11389L21.7028 3.38722C19.448 1.287 16.5071 0 13.0029 0C7.92277 0 3.52444 2.91344 1.38666 7.16156L5.7301 10.53C6.75277 7.45767 9.61855 5.17111 13.0043 5.17111Z" fill="#EA4335"/>
</g>
<defs>
<clipPath id="clip0_528_16">
<rect width="26" height="26" fill="white"/>
</clipPath>
</defs>
</svg>
