<svg width="22" height="22" viewBox="0 0 22 22" fill="none" xmlns="http://www.w3.org/2000/svg">
<path d="M18.7778 1C20.0051 1 21 1.98129 21 3.19178L21 6.93325C21 8.14373 20.0051 9.12502 18.7778 9.12502H15.4445C14.2172 9.12502 13.2222 8.14373 13.2222 6.93325L13.2222 3.19178C13.2222 1.98129 14.2171 1 15.4444 1L18.7778 1Z" stroke="#343434" stroke-opacity="0.3" stroke-width="2" stroke-linecap="round" stroke-linejoin="round"/>
<path d="M3.22222 1C1.99492 1 0.999999 1.98129 0.999999 3.19178L1.00001 6.93325C1.00001 8.14373 1.99493 9.12502 3.22223 9.12502H6.55556C7.78286 9.12502 8.77779 8.14373 8.77779 6.93325L8.77777 3.19178C8.77777 1.98129 7.78285 1 6.55555 1L3.22222 1Z" stroke="#343434" stroke-opacity="0.3" stroke-width="2" stroke-linecap="round" stroke-linejoin="round"/>
<path d="M18.7778 12.875C20.0051 12.875 21 13.8563 21 15.0668V18.8082C21 20.0187 20.0051 21 18.7778 21H15.4445C14.2172 21 13.2222 20.0187 13.2222 18.8082L13.2222 15.0668C13.2222 13.8563 14.2172 12.875 15.4445 12.875H18.7778Z" stroke="#343434" stroke-opacity="0.3" stroke-width="2" stroke-linecap="round" stroke-linejoin="round"/>
<path d="M3.22223 12.875C1.99493 12.875 1.00001 13.8563 1.00001 15.0668L1.00001 18.8082C1.00001 20.0187 1.99493 21 3.22223 21H6.55557C7.78287 21 8.77779 20.0187 8.77779 18.8082L8.77778 15.0668C8.77778 13.8563 7.78286 12.875 6.55556 12.875H3.22223Z" stroke="#343434" stroke-opacity="0.3" stroke-width="2" stroke-linecap="round" stroke-linejoin="round"/>
</svg>
