<svg width="22" height="22" viewBox="0 0 22 22" fill="none" xmlns="http://www.w3.org/2000/svg">
<path d="M20.3125 9.75L18.5 7.93875V3.5C18.5 2.8125 17.9375 2.25 17.25 2.25H16C15.3125 2.25 14.75 2.8125 14.75 3.5V4.19125L12.25 1.69375C11.9087 1.37125 11.5962 1 11 1C10.4038 1 10.0913 1.37125 9.75 1.69375L1.6875 9.75C1.2975 10.1562 1 10.4525 1 11C1 11.7037 1.54 12.25 2.25 12.25H3.5V19.75C3.5 20.4375 4.0625 21 4.75 21H7.25C7.94036 21 8.5 20.4404 8.5 19.75V14.75C8.5 14.0625 9.0625 13.5 9.75 13.5H12.25C12.9375 13.5 13.5 14.0625 13.5 14.75V19.75C13.5 20.4404 13.4346 21 14.125 21H17.25C17.9375 21 18.5 20.4375 18.5 19.75V12.25H19.75C20.46 12.25 21 11.7037 21 11C21 10.4525 20.7025 10.1562 20.3125 9.75Z" fill="#CCCCCC" stroke="#CCCCCC" stroke-width="1.5" stroke-linejoin="round"/>
</svg>
