<svg width="18" height="18" viewBox="0 0 18 18" fill="none" xmlns="http://www.w3.org/2000/svg">
<path d="M4.97479 7.66991L2.88092 9.76378C2.09892 10.5458 1.63026 11.5908 1.60371 12.6743C1.57716 13.7578 1.9704 14.7817 2.73973 15.5258C3.48372 16.2951 4.50784 16.6883 5.59116 16.6618C6.69919 16.6346 7.71907 16.1913 8.50112 15.4093L10.595 13.3154M13.2679 10.6905L15.3618 8.59662C16.1438 7.81462 16.6124 6.76956 16.639 5.68606C16.6655 4.60257 16.2723 3.57866 15.503 2.83463C14.7584 2.09004 13.7344 1.69677 12.6509 1.72332C11.5674 1.74987 10.523 2.1938 9.74098 2.97582L7.64712 5.06969M5.94786 12.3011L12.2295 6.01956" stroke="#CCCCCC" stroke-width="2" stroke-linecap="round" stroke-linejoin="round"/>
</svg>
