<svg width="20" height="20" viewBox="0 0 20 20" fill="none" xmlns="http://www.w3.org/2000/svg">
<path d="M12.6471 5.5V3.25C12.6471 2.65326 12.424 2.08097 12.0268 1.65901C11.6297 1.23705 11.091 1 10.5294 1H3.11765C2.55601 1 2.01738 1.23705 1.62024 1.65901C1.22311 2.08097 1 2.65326 1 3.25V16.75C1 17.3467 1.22311 17.919 1.62024 18.341C2.01738 18.7629 2.55601 19 3.11765 19H10.5294C11.091 19 11.6297 18.7629 12.0268 18.341C12.424 17.919 12.6471 17.3467 12.6471 16.75V14.5M6.29412 10H19M19 10L15.8235 6.625M19 10L15.8235 13.375" stroke="#343434" stroke-width="2" stroke-linecap="round" stroke-linejoin="round"/>
</svg>
